<?xml version="1.0" encoding="utf-8"?>
<!-- Generator: Adobe Illustrator 16.0.0, SVG Export Plug-In . SVG Version: 6.00 Build 0)  -->
<!DOCTYPE svg PUBLIC "-//W3C//DTD SVG 1.1//EN" "http://www.w3.org/Graphics/SVG/1.1/DTD/svg11.dtd">
<svg version="1.1" id="Слой_1" xmlns="http://www.w3.org/2000/svg" xmlns:xlink="http://www.w3.org/1999/xlink" x="0px" y="0px"
	 width="322.73px" height="343.189px" viewBox="0 0 322.73 343.189" enable-background="new 0 0 322.73 343.189"
	 xml:space="preserve">
<g>
	<path fill-rule="evenodd" clip-rule="evenodd" d="M322.73,88.601c-0.379,4.301-0.415,8.667-1.206,12.891
		c-1.912,10.207-3.936,20.407-6.375,30.498c-1.911,7.9-1.874,15.773-0.841,23.676c1.075,8.209,3.119,16.33,3.639,24.56
		c0.257,4.067-1.532,8.474-3.2,12.384c-1.271,2.979-7.434,4.292-10.417,2.988c-3.464-1.514-6.001-5.993-5.132-10.313
		c1.217-6.051,2.858-12.023,4.492-17.981c1.558-5.684,3.004-11.316,0.355-17.06c-0.407-0.882-0.809-1.781-1.34-2.589
		c-2.29-3.479-3.658-3.342-6.524-0.5c-7.217,7.159-14.047,14.917-22.152,20.923c-14.958,11.081-31.583,18.97-50.466,21.06
		c-1.652,0.184-3.265,0.726-4.896,1.101c-0.051,0.402-0.102,0.806-0.153,1.209c4.656,1.218,9.261,3.169,13.979,3.509
		c11.388,0.818,22.334-1.987,33.168-5.305c4.942-1.514,10.174-3.23,14.571,1.54c0.338,0.367,0.833,0.704,0.954,1.14
		c1.996,7.156,9.18,9.252,13.656,13.98c1.604,1.694,4.024,2.672,5.431,4.477c1.178,1.512,2.075,3.789,1.964,5.66
		c-0.388,6.544-1.675,13.046-1.859,19.585c-0.252,8.878,2.431,17.004,7.586,24.383c4.114,5.888,7.822,12.062,11.612,18.171
		c1.52,2.447,1.831,5.128-0.939,6.866c-7.956,4.99-15.794,10.25-24.116,14.558c-13.513,6.996-28.19,9.68-43.272,8.164
		c-11.229-1.129-21.457-5.935-31.197-11.54c-8.302-4.776-16.05-10.288-22.657-17.326c-8.948-9.533-18.28-18.722-26.936-28.511
		c-5.976-6.759-11.077-14.291-16.59-21.46c-0.745-0.97-1.615-1.842-2.653-3.015c-2.136,4.822-3.858,9.438-6.155,13.749
		c-5.587,10.488-10.862,21.218-17.407,31.091c-3.809,5.744-9.436,10.523-14.949,14.836c-6.736,5.269-11.519,11.92-14.361,19.559
		c-1.709,4.595-1.642,10.094,1.828,14.924c4.387,6.105,4.524,13.031,1.757,19.893c-1.1,2.727-3.711,3.514-6.225,2.183
		c-3.61-1.911-7.226-3.989-10.362-6.575c-4.513-3.72-4.949-7.933-3.201-13.804c1.071-3.599,1.594-7.497,1.561-11.253
		c-0.04-4.503-3.99-7.307-10.035-6.979c-10.513,0.571-20.262-1.895-29.26-7.009c-8.463-4.811-17.288-9.39-24.641-15.618
		c-5.562-4.712-9.762-11.48-13.309-18.017c-5.556-10.238-7.2-21.634-6.163-33.214c1.207-13.483,4.653-26.543,12.314-37.755
		c8.64-12.646,17.979-24.874,27.8-36.627c5.837-6.985,12.907-13.044,19.964-18.862c4.112-3.391,5.125-7.232,4.283-11.819
		c-3.846-20.951-8.899-41.607-16.765-61.446c-3.258-8.217-8.229-15.398-13.972-22.29c-9.23-11.078-8.998-26.853,5.988-35.113
		c7.134-3.933,14.974-5.98,23.187-6.049c7.424-0.062,14.886-0.359,22.267,0.245c15.008,1.229,27.769,7.516,39.494,17.073
		c9.632,7.853,14.274,18.515,20.476,28.577c7.698,12.488,13.394,25.663,18.544,39.231c0.282,0.744,2.199,1.641,2.875,1.35
		c17.793-7.642,33.047-18.772,44.312-34.605c6.378-8.962,10.843-19.092,14.195-29.655c0.926-2.917,2.259-5.789,3.887-8.379
		c4.316-6.872,10.818-7.945,18.176-6.24c11.569,2.679,22.713,6.495,32.092,14.015c4.817,3.862,9.305,8.236,13.435,12.834
		c6.03,6.714,11.858,13.644,17.308,20.835c6.48,8.552,11.979,17.673,11.866,29.012c-0.005,0.391,0.465,0.787,0.714,1.181
		C322.73,86.601,322.73,87.601,322.73,88.601z M290.215,260.952c-1.19-2.109-2.057-3.605-2.887-5.123
		c-5.393-9.85-11.114-19.538-16.037-29.617c-3.024-6.191-4.57-13.01-3.657-20.133c0.065-0.513-1.485-1.843-2.123-1.744
		c-8.793,1.363-17.55,2.957-26.33,4.403c-10.7,1.762-20.597-1.396-29.457-6.671c-8.341-4.966-16.067-11.125-23.468-17.457
		c-5.223-4.469-11.728-8.584-11.272-17.173c-1.311-0.065-2.415-0.212-3.51-0.161c-17.674,0.835-35.327,1.986-52.335,7.377
		c-7.772,2.463-15.479,5.208-23.028,8.282c-10.957,4.462-18.3,13.56-26.126,21.819c-2.549,2.69-4.18,6.829-4.877,10.558
		c-1.023,5.475-0.574,11.206-1.216,16.774c-0.917,7.945-2.414,15.789-8.471,21.775c-4.267,4.218-8.745,5.359-13.575,3.088
		c-4.813-2.264-7.482-6.318-7.353-11.631c0.119-4.825,0.524-9.714,1.479-14.438c2.948-14.607,13.577-24.183,23.486-33.968
		c4.398-4.343,10.081-7.445,15.373-10.808c4.991-3.172,9.991-6.549,15.427-8.747c7.054-2.854,14.592-4.481,21.833-6.905
		c13.19-4.415,26.724-7.076,40.546-8.344c11.405-1.046,22.876-1.561,34.212-3.098c14.687-1.991,29.013-5.583,43.175-10.211
		c16.961-5.543,30.679-15.333,41.949-28.743c4.574-5.443,8.386-11.568,12.177-17.613c2.174-3.469,4.247-7.239,5.251-11.159
		c2.384-9.307,2.067-18.782,1.113-28.359c-1.425-14.312-10.19-23.406-20.845-31.295c-8.286-6.135-17.954-9.053-28.525-11.212
		c-1.306,2.944-2.913,5.85-3.919,8.951c-7.001,21.578-19.127,39.441-37.146,53.458c-15.324,11.919-32.532,19.497-51.197,24.121
		c-1.226,0.304-2.73,0.069-3.964-0.341c-5.834-1.944-7.894-6.328-8.204-12.221c-0.534-10.144-1.057-20.319-2.332-30.387
		c-1.894-14.969-7.185-28.427-20.303-37.333c-5.381-3.653-10.834-7.625-16.852-9.798c-6.052-2.186-12.833-2.411-19.318-3.325
		c-10.175-1.433-20.057,0.024-29.54,3.796c-8.543,3.398-8.214,10.554-3.564,15.525c9.301,9.944,14.69,21.89,19.143,34.407
		c6.264,17.61,10.352,35.798,14.14,54.067c1.706,8.231,1.136,15.846-4.972,22.235c-9.96,10.417-19.96,20.795-29.969,31.165
		c-9.411,9.751-17.683,20.369-22.744,33.015c-4.97,12.419-8.663,25.157-5.162,38.826c2.525,9.859,6.879,18.739,14.596,25.418
		c9.418,8.151,20.769,7.19,31.914,5.104c15.07-2.823,26.765-11.084,35.652-23.481c14.04-19.587,26.23-39.947,28.96-64.665
		c0.246-2.229,2.977-4.97,5.219-5.945c1.883-0.82,5.194-0.086,7.044,1.176c2.327,1.586,3.94,4.316,5.635,6.714
		c8.285,11.722,16.193,23.724,24.82,35.185c7.746,10.293,15.89,20.339,24.515,29.901c10.881,12.064,25.146,18.138,40.969,20.856
		c8.803,1.513,17.66,2.426,26.205-0.807c6.221-2.354,12.222-5.337,18.173-8.335C282.767,265.773,286.317,263.312,290.215,260.952z"
		/>
</g>
</svg>
